#!OML:ASF I:\Actors\actors\Patient Classification 1\Patient 1\Session 1\Subject1.ASF
:FULLY-SPECIFIED
:DEGREES
297
root 0.505647 17.5238 9.57344 6.32183 -2.3681 -9.23862
lowerback -0.713745 0.636325 6.49677
upperback -11.1883 1.3675 1.5874
thorax -11.5324 0.12768 -2.02456
lowerneck -4.29581 -2.87096 -2.99162
upperneck 18.5182 -5.60342 10.7252
head 6.70431 -2.11188 3.55448
rclavicle -2.5842e-015 -1.27222e-014
rhumerus 24.1498 -22.2691 -28.7002
rradius 148.57
rwrist -11.0073
rhand -6.41431 -63.5778
rfingers 7.12502
rthumb 19.434 -267.373
lclavicle -2.5842e-015 -1.27222e-014
lhumerus 36.9735 15.0467 39.2726
lradius 143.85
lwrist 9.1515
lhand -27.9649 0.359095
lfingers 7.12502
lthumb -1.35203 30.3346
rfemur -3.08668 20.6758 27.7466
rtibia 8.40475
rfoot -13.511 -19.0043
rtoes -0.738202
lfemur 13.8461 -45.8584 -17.7687
ltibia -5.20839
lfoot -25.0175 53.8361
ltoes 9.66459
298
root 0.506081 17.5256 9.57409 6.43626 -2.18928 -9.20105
lowerback -0.678973 0.607912 6.43194
upperback -11.2753 1.33328 1.58139
thorax -11.6585 0.11201 -1.99198
lowerneck -3.90852 -2.88636 -3.23335
upperneck 17.8152 -5.56858 10.9514
head 6.41979 -2.12826 3.66815
rclavicle -4.17448e-015 -1.43125e-014
rhumerus 25.3025 -23.7692 -28.8738
rradius 148.828
rwrist -10.7532
rhand -6.33876 -63.8618
rfingers 7.12502
rthumb 19.5067 -267.097
lclavicle -4.17448e-015 -1.43125e-014
lhumerus 38.1471 15.7019 39.7424
lradius 143.971
lwrist 6.4753
lhand -28.2486 -0.444202
lfingers 7.12502
lthumb -1.62606 29.5293
rfemur -3.19671 20.6897 27.666
rtibia 8.35725
rfoot -13.5659 -19.1661
rtoes -0.642689
lfemur 13.6662 -46.1299 -17.6945
ltibia -5.19874
lfoot -24.9219 53.9214
ltoes 9.58213
299
root 0.506222 17.5277 9.57532 6.51843 -2.01372 -9.1883
lowerback -0.618852 0.569085 6.4065
upperback -11.3519 1.28974 1.58608
thorax -11.7895 0.0886949 -1.96901
lowerneck -3.77893 -2.86573 -3.27552
upperneck 17.5161 -5.51189 10.9915
head 6.29949 -2.11375 3.69045
rclavicle 5.96354e-016 -9.14409e-015
rhumerus 26.5828 -25.2087 -28.9667
rradius 149.031
rwrist -11.1427
rhand -5.98898 -64.3561
rfingers 7.12502
rthumb 19.843 -266.637
lclavicle 5.96354e-016 -9.14409e-015
lhumerus 39.4196 16.5722 40.1556
lradius 144.137
lwrist 5.88995
lhand -28.7243 -0.802822
lfingers 7.12502
lthumb -2.08545 29.1667
rfemur -3.22615 20.7616 27.6464
rtibia 8.26898
rfoot -13.5699 -19.3731
rtoes -0.461019
lfemur 13.365 -46.0741 -17.457
ltibia -5.15692
lfoot -24.8159 53.6643
ltoes 9.60984
300
root 0.50714 17.5298 9.57476 6.56364 -1.82665 -9.19199
lowerback -0.498134 0.516155 6.43234
upperback -11.4058 1.23401 1.58868
thorax -11.9325 0.0542468 -1.97619
lowerneck -3.63464 -2.84275 -3.41934
upperneck 17.2702 -5.44498 11.0162
head 6.19469 -2.1008 3.72659
rclavicle 4.37326e-015 -3.97569e-016
rhumerus 27.9053 -26.5379 -29.0015
rradius 149.075
rwrist -11.3987
rhand -5.65475 -64.7991
rfingers 7.12502
rthumb 20.1642 -266.227
lclavicle 4.37326e-015 -3.97569e-016
lhumerus 40.772 17.6763 40.4558
lradius 144.318
lwrist 6.2676
lhand -28.9653 -0.675885
lfingers 7.12502
lthumb -2.31823 29.2913
rfemur -3.20207 20.8623 27.6673
rtibia 8.17123
rfoot -13.5661 -19.624
rtoes -0.197666
lfemur 13.0354 -45.8506 -17.1543
ltibia -5.12961
lfoot -24.4487 53.3212
ltoes 9.35092
301
root 0.509279 17.5327 9.57363 6.64521 -1.63177 -9.19586
lowerback -0.403486 0.466025 6.49503
upperback -11.4527 1.1808 1.58135
thorax -12.0514 0.0174837 -2.01431
lowerneck -3.63554 -2.85401 -3.41959
upperneck 17.198 -5.43485 10.9107
head 6.16868 -2.1054 3.69216
rclavicle 2.78299e-015 1.98785e-015
rhumerus 29.238 -27.8054 -28.976
rradius 149.006
rwrist -11.4436
rhand -5.45635 -65.2188
rfingers 7.12502
rthumb 20.3549 -265.828
lclavicle 2.78299e-015 1.98785e-015
lhumerus 42.2523 18.8193 40.8715
lradius 144.406
lwrist 6.82342
lhand -28.8932 -0.183372
lfingers 7.12502
lthumb -2.24856 29.7845
rfemur -3.22401 20.9544 27.6597
rtibia 8.05533
rfoot -13.5643 -19.8745
rtoes -0.052126
lfemur 12.6063 -45.5898 -16.778
ltibia -5.09406
lfoot -23.8864 52.9751
ltoes 8.91293
302
root 0.511188 17.5361 9.57429 6.73452 -1.4602 -9.20829
lowerback -0.338837 0.416062 6.56469
upperback -11.502 1.12517 1.56853
thorax -12.1553 -0.0212509 -2.06151
lowerneck -3.45703 -2.83774 -3.37347
upperneck 16.9771 -5.39264 10.8965
head 6.06291 -2.09516 3.68241
rclavicle -1.98785e-014 3.61788e-014
rhumerus 30.5776 -29.0226 -28.9964
rradius 148.867
rwrist -11.7498
rhand -5.01429 -65.7004
rfingers 7.12502
rthumb 20.7797 -265.392
lclavicle -1.98785e-014 3.61788e-014
lhumerus 43.7574 19.8776 41.4352
lradius 144.348
lwrist 7.63269
lhand -28.968 0.537286
lfingers 7.12502
lthumb -2.32083 30.5044
rfemur -3.25294 21.0249 27.6517
rtibia 7.93851
rfoot -13.5744 -20.0845
rtoes 0.130491
lfemur 12.1964 -45.3562 -16.4241
ltibia -5.04073
lfoot -23.3907 52.6609
ltoes 8.50715
